<?xml version="1.0" encoding="UTF-8" standalone="no"?>
<!DOCTYPE svg PUBLIC "-//W3C//DTD SVG 1.1//EN"
 "http://www.w3.org/Graphics/SVG/1.1/DTD/svg11.dtd">
<!-- Generated by graphviz version 14.1.5 (0)
 -->
<!-- Title: ontology Pages: 1 -->
<svg width="123pt" height="169pt"
 viewBox="0.00 0.00 123.00 169.00" xmlns="http://www.w3.org/2000/svg" xmlns:xlink="http://www.w3.org/1999/xlink">
<g id="graph0" class="graph" transform="scale(1 1) rotate(0) translate(4 165)">
<title>ontology</title>
<polygon fill="white" stroke="none" points="-4,4 -4,-165 118.5,-165 118.5,4 -4,4"/>
<!-- Ciudad -->
<g id="node1" class="node">
<title>Ciudad</title>
<polygon fill="none" stroke="#b2dfee" points="29.75,-0.5 29.75,-36.5 84.75,-36.5 84.75,-0.5 29.75,-0.5"/>
<text xml:space="preserve" text-anchor="middle" x="57.25" y="-13.7" font-family="Times,serif" font-size="14.00">Ciudad</text>
</g>
<!-- Usuario -->
<g id="node2" class="node">
<title>Usuario</title>
<polygon fill="none" stroke="#b2dfee" points="0,-56 0,-105 114.5,-105 114.5,-56 0,-56"/>
<text xml:space="preserve" text-anchor="middle" x="57.25" y="-87.7" font-family="Times,serif" font-size="14.00">Usuario</text>
<polyline fill="none" stroke="#b2dfee" points="0,-80.5 114.5,-80.5"/>
<text xml:space="preserve" text-anchor="middle" x="20.75" y="-63.2" font-family="Times,serif" font-size="14.00">edad</text>
<polyline fill="none" stroke="#b2dfee" points="41.5,-56 41.5,-80.5"/>
<text xml:space="preserve" text-anchor="middle" x="78" y="-63.2" font-family="Times,serif" font-size="14.00">SYMBOL</text>
</g>
<!-- Viaje -->
<g id="node3" class="node">
<title>Viaje</title>
<polygon fill="none" stroke="#b2dfee" points="30.25,-124.5 30.25,-160.5 84.25,-160.5 84.25,-124.5 30.25,-124.5"/>
<text xml:space="preserve" text-anchor="middle" x="57.25" y="-137.7" font-family="Times,serif" font-size="14.00">Viaje</text>
</g>
</g>
</svg>
