<?xml version="1.0" encoding="UTF-8" standalone="no"?>
<!DOCTYPE svg PUBLIC "-//W3C//DTD SVG 1.1//EN"
 "http://www.w3.org/Graphics/SVG/1.1/DTD/svg11.dtd">
<!-- Generated by graphviz version 14.1.5 (0)
 -->
<!-- Title: ontology Pages: 1 -->
<svg width="131pt" height="150pt"
 viewBox="0.00 0.00 131.00 150.00" xmlns="http://www.w3.org/2000/svg" xmlns:xlink="http://www.w3.org/1999/xlink">
<g id="graph0" class="graph" transform="scale(1 1) rotate(0) translate(4 146.25)">
<title>ontology</title>
<polygon fill="white" stroke="none" points="-4,4 -4,-146.25 126.75,-146.25 126.75,4 -4,4"/>
<!-- Ciudad -->
<g id="node1" class="node">
<title>Ciudad</title>
<polygon fill="none" stroke="#b2dfee" points="0,-0.5 0,-49.5 122.75,-49.5 122.75,-0.5 0,-0.5"/>
<text xml:space="preserve" text-anchor="middle" x="61.38" y="-32.2" font-family="Times,serif" font-size="14.00">Ciudad</text>
<polyline fill="none" stroke="#b2dfee" points="0,-25 122.75,-25"/>
<text xml:space="preserve" text-anchor="middle" x="29" y="-7.7" font-family="Times,serif" font-size="14.00">nombre</text>
<polyline fill="none" stroke="#b2dfee" points="58,-0.5 58,-25"/>
<text xml:space="preserve" text-anchor="middle" x="90.38" y="-7.7" font-family="Times,serif" font-size="14.00">STRING</text>
</g>
<!-- Usuario -->
<g id="node2" class="node">
<title>Usuario</title>
<polygon fill="none" stroke="#b2dfee" points="2.25,-68.25 2.25,-141.75 120.5,-141.75 120.5,-68.25 2.25,-68.25"/>
<text xml:space="preserve" text-anchor="middle" x="61.38" y="-124.45" font-family="Times,serif" font-size="14.00">Usuario</text>
<polyline fill="none" stroke="#b2dfee" points="2.25,-117.25 120.5,-117.25"/>
<text xml:space="preserve" text-anchor="middle" x="23.5" y="-99.95" font-family="Times,serif" font-size="14.00">edad</text>
<polyline fill="none" stroke="#b2dfee" points="44.75,-92.75 44.75,-117.25"/>
<text xml:space="preserve" text-anchor="middle" x="82.62" y="-99.95" font-family="Times,serif" font-size="14.00">INTEGER</text>
<polyline fill="none" stroke="#b2dfee" points="2.25,-92.75 120.5,-92.75"/>
<text xml:space="preserve" text-anchor="middle" x="24.88" y="-75.45" font-family="Times,serif" font-size="14.00">perfil</text>
<polyline fill="none" stroke="#b2dfee" points="47.5,-68.25 47.5,-92.75"/>
<text xml:space="preserve" text-anchor="middle" x="84" y="-75.45" font-family="Times,serif" font-size="14.00">SYMBOL</text>
</g>
</g>
</svg>
